<svg xmlns="http://www.w3.org/2000/svg" width="1200" height="360" viewBox="0 0 1200 360" role="img" aria-label="JevAny, calibrated decisions from Qwen3.8">
  <defs>
    <linearGradient id="bg" x1="0" y1="0" x2="1" y2="1">
      <stop offset="0" stop-color="#080b12"/>
      <stop offset="1" stop-color="#171d2e"/>
    </linearGradient>
    <linearGradient id="line" x1="0" y1="0" x2="1" y2="0">
      <stop offset="0" stop-color="#7c5cff"/>
      <stop offset="1" stop-color="#32d6c5"/>
    </linearGradient>
  </defs>
  <rect width="1200" height="360" rx="28" fill="url(#bg)"/>
  <g fill="none" stroke="url(#line)" stroke-width="4" opacity="0.9">
    <path d="M110 180 H270 M390 180 H550 M670 180 H830"/>
    <path d="M830 180 C900 180 900 105 970 105 M830 180 C900 180 900 255 970 255"/>
  </g>
  <g fill="#111726" stroke="#5c6b8a" stroke-width="2">
    <rect x="70" y="130" width="200" height="100" rx="18"/>
    <rect x="390" y="130" width="280" height="100" rx="18"/>
    <rect x="970" y="65" width="160" height="80" rx="18"/>
    <rect x="970" y="215" width="160" height="80" rx="18"/>
  </g>
  <g fill="#f5f7ff" font-family="Inter,Arial,sans-serif" text-anchor="middle">
    <text x="170" y="175" font-size="25" font-weight="650">state + questions</text>
    <text x="170" y="207" font-size="16" fill="#aab4cc">typed input</text>
    <text x="530" y="173" font-size="28" font-weight="700">JevAny</text>
    <text x="530" y="207" font-size="16" fill="#aab4cc">Qwen3.8 + pointer head</text>
    <text x="1050" y="105" font-size="21" font-weight="650">answer</text>
    <text x="1050" y="255" font-size="21" font-weight="650">confidence</text>
  </g>
  <text x="600" y="320" fill="#8f9bb7" font-family="Inter,Arial,sans-serif" text-anchor="middle" font-size="15">prefill only · no decoded answer tokens · calibrated probabilities</text>
</svg>
